<svg xmlns="http://www.w3.org/2000/svg" xml:space="preserve" style="enable-background:new 0 0 640 640" viewBox="0 0 640 640"><path d="M587.81 215.84c11.64-33.43 30.31-61.22 38.19-95.84-1.63-9.86-5.86-19.34-5.35-29.43-17.12 16.08-32.64 36.11-45.38 62.52-43.17 104.68-111.24 188.22-172.42 276.7-24.45 30.25-52.46 106-98.89 78.19-31.5-21.25-52.62-64.68-71.58-100.8-42.84-80.22-89.12-156.83-113.86-245.96-6.53-23.02-12.42-46.44-20.31-68.84-5.25-14.91-12.79-28.32-18.83-42.63 2.85-23.86-18.73-47.01-37.49-27.58-11.01-11.18-28.35-1.56-29.64 17.54-2.6 38.38 15.83 73.38 31.79 104.34 42.12 88.74 79.22 181.4 115.67 273.2 36.92 122.61 103.83 325.72 216.62 123.47 72.34-82.41 132.34-176.04 188.12-270.92 18.79-23.79 14.7-27.82 23.36-53.96z"/><path d="M199.92 559.67c-.28.27-.55.55-.83.82"/></svg>